<?xml version="1.0" encoding="UTF-8"?>
<svg version="1.1" xmlns="http://www.w3.org/2000/svg" width="513" height="389">
<path d="M0 0 C3.39143515 2.2015829 5.68442321 4.05326962 7 8 C6.505 7.731875 6.01 7.46375 5.5 7.1875 C-2.24533215 3.50846723 -8.85541906 1.40361378 -17.390625 3.62109375 C-28.82157878 7.99518321 -33.4302055 19.02414249 -38.53323364 29.30084229 C-40.50164187 33.26430457 -42.50788344 37.20862779 -44.5078125 41.15625 C-44.90011551 41.93340363 -45.29241852 42.71055725 -45.6966095 43.51126099 C-48.70002615 49.4499024 -51.82889351 55.30827429 -55.0625 61.125 C-60.06450481 70.15515241 -64.79603353 79.31247295 -69.5 88.5 C-74.20400566 97.68760358 -78.9373201 106.8437762 -83.9375 115.875 C-89.16197716 125.31418142 -94.08940251 134.89526682 -99 144.5 C-104.3474144 154.95911188 -109.76271893 165.3588224 -115.453125 175.63671875 C-119.96894717 183.83943136 -124.23310686 192.1661404 -128.5 200.5 C-133.20400566 209.68760358 -137.9373201 218.8437762 -142.9375 227.875 C-148.16197835 237.31418358 -153.08936105 246.89528608 -158 256.5 C-163.38776996 267.03763983 -168.8450811 277.51630337 -174.56958008 287.8762207 C-178.90272383 295.74785909 -183.05631862 303.70863405 -187.1875 311.6875 C-187.6897963 312.65499176 -187.6897963 312.65499176 -188.20223999 313.64202881 C-189.15173498 315.47226964 -190.09797445 317.3041508 -191.04296875 319.13671875 C-191.86317505 320.72552856 -191.86317505 320.72552856 -192.69995117 322.34643555 C-195.6970196 328.46383212 -196.02446011 334.8630082 -194.38671875 341.4765625 C-192.05723831 347.449063 -188.31868177 351.47424486 -183 355 C-174.95839231 358.30280316 -168.37936541 357.46779872 -160.4921875 354.55859375 C-153.41533992 350.13279095 -149.99041016 342.68300468 -146.375 335.4375 C-145.31567802 333.3597196 -144.25443401 331.28291815 -143.19140625 329.20703125 C-142.65789551 328.16240723 -142.12438477 327.1177832 -141.57470703 326.04150391 C-139.23565702 321.52369228 -136.77602204 317.07576315 -134.3125 312.625 C-128.80312014 302.62646168 -123.58877489 292.48568533 -118.38659668 282.32543945 C-114.05182065 273.86368974 -109.66814485 265.44362258 -105.0625 257.125 C-99.83802284 247.68581858 -94.91059749 238.10473318 -90 228.5 C-84.6525856 218.04088812 -79.23728107 207.6411776 -73.546875 197.36328125 C-68.64245291 188.45470086 -64.03143031 179.39865582 -59.39804077 170.34732056 C-54.35147657 160.49408932 -49.21174906 150.70573687 -43.84179688 141.0234375 C-40.73946842 135.42188421 -37.82264019 129.74760487 -35 124 C-34.34 124 -33.68 124 -33 124 C-32.99853344 124.96668106 -32.99706688 125.93336212 -32.99555588 126.92933655 C-32.95895111 150.45735198 -32.89948864 173.98522517 -32.81609726 197.51312256 C-32.77629815 208.89107498 -32.74391004 220.26895815 -32.72900391 231.64697266 C-32.71599196 241.56474898 -32.68903884 251.48237298 -32.64538693 261.40006351 C-32.62276199 266.65079734 -32.60708995 271.90134323 -32.60811615 277.15213013 C-32.60886214 282.09668306 -32.59093556 287.04082035 -32.55883217 291.98526573 C-32.55032972 293.79762565 -32.54858558 295.61003216 -32.55419731 297.42240334 C-32.56085368 299.90301608 -32.54287876 302.38231267 -32.51898193 304.86279297 C-32.52674235 305.57487947 -32.53450277 306.28696596 -32.54249835 307.02063084 C-32.43674739 313.24961283 -30.29303952 318.34274168 -26.25390625 323.0234375 C-25.69574219 323.46945312 -25.13757813 323.91546875 -24.5625 324.375 C-24.00691406 324.83648437 -23.45132813 325.29796875 -22.87890625 325.7734375 C-16.94829694 329.64497871 -10.88424048 329.92937246 -4 329 C8.80341399 324.60813125 14.82773513 311.76744665 20.4375 300.4375 C21.85279638 297.53459638 23.2604736 294.62810449 24.66650391 291.72070312 C26.57219291 287.83256723 28.5882503 284.00817631 30.625 280.1875 C35.28271746 271.41299218 39.83264813 262.58456466 44.375 253.75 C49.74888651 243.30083318 55.14128829 232.8622324 60.58642578 222.44995117 C64.65798473 214.66293603 68.70666509 206.86419512 72.75 199.0625 C73.06512543 198.45448547 73.38025085 197.84647095 73.70492554 197.22003174 C75.47035473 193.81356392 77.23536486 190.40687922 79 187 C79.66 187 80.32 187 81 187 C81.00146656 187.56892188 81.00293312 188.13784376 81.00444412 188.7240057 C81.04157126 202.59703465 81.10091433 216.46981743 81.18390274 230.34265041 C81.22363324 237.05159824 81.25605595 243.7604298 81.27099609 250.46948242 C81.28616695 256.94706868 81.32062124 263.42429443 81.36830902 269.90172005 C81.38311819 272.36994349 81.39104074 274.8382184 81.39188385 277.30648613 C81.39425651 280.77038648 81.42136275 284.23329303 81.45410156 287.69702148 C81.4490712 288.71194672 81.44404083 289.72687195 81.43885803 290.77255249 C81.5434926 297.95302866 82.74253114 304.41195986 87.70782852 309.88114071 C93.47164966 315.26185691 99.35876739 316.53092054 107.11328125 316.3828125 C113.15216737 315.58198592 118.10831651 312.84317878 122.4375 308.625 C126.27156789 302.18376595 127.44205995 297.3802744 127.38768005 289.98062134 C127.39306559 289.09485959 127.39845113 288.20909785 127.40399987 287.29649484 C127.41826178 284.34026114 127.41118002 281.38447633 127.40405273 278.42822266 C127.40975725 276.3038853 127.41672182 274.17955102 127.42485046 272.05522156 C127.44278872 266.29277463 127.44161209 260.53047993 127.43590808 254.76801348 C127.43281696 249.9544186 127.4389079 245.14085299 127.44494683 240.32726228 C127.45899288 228.96945216 127.45743029 217.61171725 127.44604492 206.25390625 C127.43456563 194.54376531 127.44863616 182.83385345 127.4754414 171.1237427 C127.49760682 161.06323053 127.5042338 151.00279023 127.49836498 140.94225538 C127.49499601 134.93649077 127.49740665 128.93087297 127.51461601 122.92512894 C127.53009615 117.27631142 127.5261174 111.62783288 127.50731087 105.9790287 C127.50362788 103.90905509 127.50672495 101.83905631 127.51719666 99.76910591 C127.53042811 96.93679725 127.5188398 94.1056072 127.50120544 91.27334595 C127.51081045 90.46000058 127.52041546 89.64665521 127.53031152 88.80866301 C127.4462601 82.21852621 125.81838562 76.04629712 121.25000471 71.10848963 C115.08989076 65.46496624 109.45298937 64.53356285 101.2265625 64.69140625 C94.15263284 65.36796853 90.01116249 68.50301795 85.56811523 73.82983398 C82.55793713 77.99571802 80.45822545 82.62504555 78.25 87.25 C77.18780302 89.42396207 76.12398414 91.59713239 75.05859375 93.76953125 C74.27718018 95.36982178 74.27718018 95.36982178 73.47998047 97.00244141 C71.49624851 101.02030037 69.41992783 104.98348687 67.3125 108.9375 C62.67463522 117.66986527 58.14595847 126.45675861 53.625 135.25 C48.73278416 144.76290086 43.83180395 154.27052743 38.875 163.75 C37.92312343 165.57288865 36.97130112 167.39580564 36.01953125 169.21875 C34.42893792 172.26504161 32.83732536 175.31078681 31.24365234 178.35546875 C22.14551682 195.74434878 13.39662856 213.26043233 5 231 C3.54111009 227.1554384 4.51682595 224.71133034 5.83250427 220.91125488 C12.51202164 200.44258708 14.30924085 181.90493897 14.11447453 160.45638466 C14.0856826 156.197698 14.10918815 151.93924673 14.12632751 147.68054199 C14.15102225 139.67376194 14.13103492 131.66779288 14.09355396 123.66108847 C14.05305286 114.52138917 14.06455495 105.38196319 14.07967007 96.24221325 C14.10954867 77.49455763 14.07657594 58.74750884 14 40 C21.56997108 37.93468076 29.26543043 36.67499273 36.99389648 35.37036133 C38.50758793 35.11252367 40.02123839 34.85444525 41.53485107 34.59614563 C45.62726585 33.89880828 49.72039037 33.20573334 53.81377673 32.51412416 C56.3748557 32.08139562 58.93583072 31.64805652 61.4967823 31.21457481 C69.52075492 29.85676109 77.54522036 28.50190866 85.57032722 27.15081483 C94.81437388 25.59441276 104.0566203 24.02783125 113.29747528 22.45259267 C120.45635998 21.23292984 127.61679627 20.02267484 134.77845818 18.81942767 C139.04920806 18.10165945 143.31919396 17.3799185 147.58758354 16.64823341 C151.60201922 15.96032375 155.61826045 15.28414853 159.63615417 14.61674309 C161.10536837 14.37065294 162.5738972 14.12042758 164.04162788 13.86563873 C181.24223607 10.88543825 181.24223607 10.88543825 188.8125 14.25 C193.65300705 18.12240564 195.89699297 21.88332467 197 28 C196.86706382 31.36771658 196.49615811 34.66769484 196 38 C197.27617188 37.76023437 197.27617188 37.76023437 198.578125 37.515625 C209.43554435 35.87957551 220.42635441 36.19727354 229.875 42.25 C234.35183358 45.7448866 236.91317625 50.42872825 238 56 C238.79499536 67.98042525 237.19836343 80.2142462 236.28173828 92.15600586 C235.42019977 103.46443139 234.76247473 114.6548696 235 126 C239.00188145 126.07677834 242.61981705 126.07033843 246.48828125 125.01171875 C247.27178955 124.80119873 248.05529785 124.59067871 248.86254883 124.3737793 C250.07527466 124.03407104 250.07527466 124.03407104 251.3125 123.6875 C252.15772217 123.4603833 253.00294434 123.2332666 253.8737793 122.99926758 C258.07517966 121.85991163 262.19857115 120.613662 266.3125 119.1875 C273.56552314 116.9772968 282.45951672 116.43339632 289.5 119.5625 C295.44732567 123.2047594 299.60700029 128.44079741 301.52734375 135.15625 C303.73568153 148.44277814 302.18541863 159.90120315 294.75 171.25 C279.13256305 192.15029089 252.19827519 196.73192644 228 201 C227.01 201 226.02 201 225 201 C224.90501221 201.98638962 224.81002441 202.97277924 224.7121582 203.98905945 C222.21962113 229.83824873 219.66498451 255.68092705 216.96762085 281.50961494 C216.42216578 286.73424961 215.8822994 291.95934137 215.35449219 297.18579102 C214.83019466 302.3761031 214.29254729 307.56487398 213.74557495 312.75284386 C213.54320473 314.69340912 213.34540874 316.6344579 213.15261841 318.57599831 C210.31062952 347.10413461 210.31062952 347.10413461 200 356 C195.83100787 359.05098701 192.85086992 359.35618358 187.73046875 359.29296875 C187.04946609 359.28872391 186.36846344 359.28447906 185.66682434 359.28010559 C183.50663541 359.2634061 181.34740358 359.22577312 179.1875 359.1875 C177.71681042 359.17244174 176.24610611 359.15875534 174.77539062 359.14648438 C171.18328643 359.11353214 167.59173674 359.06181173 164 359 C163.86722656 360.23621094 163.73445313 361.47242188 163.59765625 362.74609375 C162.59140169 370.69637974 159.1296857 375.39808181 153.09765625 380.5546875 C141.83695844 388.31345508 121.54940917 385.14360755 108.39428711 385.12939453 C106.26038076 385.13075327 104.12647465 385.13253584 101.99256897 385.13470459 C96.21458887 385.13924459 90.43662674 385.13749769 84.65864635 385.1343255 C78.49716701 385.13175829 72.33568901 385.13415374 66.17420959 385.13571167 C55.74626397 385.13753157 45.31832541 385.13514298 34.89038086 385.13037109 C24.39656097 385.1256221 13.90275536 385.12547762 3.40893555 385.13037109 C-30.51979367 385.14555853 -64.44810684 385.11561534 -98.37669086 385.01091194 C-102.00088907 384.99999732 -105.62508894 384.9900746 -109.24929047 384.98033142 C-122.92705696 384.94217935 -136.60438085 384.88011899 -150.28185844 384.78292465 C-154.42843001 384.75405148 -158.57489002 384.73407568 -162.72154427 384.72217178 C-167.49951694 384.70797134 -172.27697896 384.6749785 -177.05472684 384.62683153 C-178.78315785 384.61249549 -180.51165886 384.60475893 -182.24014926 384.60429335 C-198.35647673 384.59215721 -198.35647673 384.59215721 -205 380 C-208.87498262 375.92630032 -210.12327642 372.8125247 -210.13142776 367.25913525 C-210.13526891 366.27802814 -210.13911005 365.29692103 -210.1430676 364.2860834 C-210.14220112 363.20555817 -210.14133463 362.12503294 -210.14044189 361.01176453 C-210.14341302 359.86595643 -210.14638414 358.72014834 -210.1494453 357.53961879 C-210.15663225 354.35412965 -210.15930513 351.16867333 -210.16004276 347.9831773 C-210.16189248 344.54953921 -210.1694394 341.11591283 -210.17617798 337.68228149 C-210.18976509 330.17196684 -210.19578657 322.66165752 -210.20018864 315.15133262 C-210.20295035 310.46283909 -210.20718757 305.77434762 -210.21169281 301.08585548 C-210.22388584 288.10754749 -210.23418517 275.12924115 -210.2375679 262.15092754 C-210.23778747 261.32014352 -210.23800703 260.48935949 -210.23823325 259.63340019 C-210.23856067 258.3842252 -210.23856067 258.3842252 -210.2388947 257.10981435 C-210.23933817 255.42224928 -210.23978473 253.73468421 -210.24023438 252.04711914 C-210.2404558 251.21002676 -210.24067723 250.37293437 -210.24090537 249.51047555 C-210.24485391 235.94468909 -210.26230948 222.37895632 -210.2855939 208.8131906 C-210.30930075 194.88905171 -210.32176944 180.96493977 -210.32293582 167.04078037 C-210.32385294 159.22140346 -210.32961461 151.40209652 -210.34775543 143.58273888 C-210.36314742 136.9247193 -210.36828224 130.26679132 -210.36001733 123.60875734 C-210.35610763 120.21155213 -210.35705581 116.81453143 -210.37107468 113.41734886 C-210.38372112 109.734468 -210.3779567 106.05206348 -210.36749268 102.3691864 C-210.37554908 101.29535334 -210.38360548 100.22152027 -210.39190602 99.11514682 C-210.3409725 91.47161142 -208.76227868 86.2921641 -203.54296875 80.4453125 C-198.51207833 75.73283287 -193.05053357 73.83166181 -186.3347168 72.63354492 C-185.65208362 72.51074 -184.96945044 72.38793509 -184.2661314 72.26140881 C-181.84574324 71.83081718 -179.42330161 71.41387897 -177 71 C-175.5990679 70.7603269 -175.5990679 70.7603269 -174.16983414 70.51581192 C-166.26948318 69.17047837 -158.36359296 67.85903256 -150.45703125 66.55078125 C-147.91354327 66.12911757 -145.3700609 65.70742 -142.82658386 65.28569031 C-137.52937204 64.40787005 -132.23192236 63.53150295 -126.93432617 62.65600586 C-120.82028628 61.64552547 -114.70697624 60.63070963 -108.59397298 59.61397868 C-102.68066032 58.63069306 -96.76662257 57.65184162 -90.85230064 56.67464256 C-88.34702613 56.26009822 -85.8419695 55.84423492 -83.33713722 55.42702675 C-79.84882767 54.84639549 -76.35971856 54.27082979 -72.87036133 53.6965332 C-71.8381395 53.52358231 -70.80591766 53.35063141 -69.74241638 53.17243958 C-68.7910379 53.01690613 -67.83965942 52.86137268 -66.85945129 52.7011261 C-66.03679181 52.56491002 -65.21413233 52.42869394 -64.36654377 52.28835011 C-61.8883481 51.98639584 -59.49403538 51.95023887 -57 52 C-56.7321167 51.1352002 -56.4642334 50.27040039 -56.18823242 49.37939453 C-55.01660537 46.04722653 -53.61517418 43.06214074 -51.98828125 39.9296875 C-51.39466797 38.785 -50.80105469 37.6403125 -50.18945312 36.4609375 C-49.88015869 35.87022461 -49.57086426 35.27951172 -49.25219727 34.67089844 C-48.32729837 32.90328184 -47.41064891 31.13135665 -46.49414062 29.359375 C-33.42694076 4.26361414 -33.42694076 4.26361414 -22.625 -1.9375 C-14.83148818 -4.22180519 -7.32127352 -3.53488969 0 0 Z M196 41 C194.41477572 42.58522428 194.65668711 44.33843891 194.43966579 46.5388279 C194.34013967 47.5257864 194.24061355 48.5127449 194.13807148 49.52961123 C194.03203777 50.62695287 193.92600406 51.7242945 193.8167572 52.85488892 C193.70156331 54.01053325 193.58636942 55.16617759 193.46768481 56.35684144 C193.14745099 59.57880505 192.83125764 62.80113656 192.51673067 66.02366138 C192.17706847 69.49379286 191.83228799 72.96341613 191.48814392 76.43310547 C190.81407951 83.23755798 190.14483807 90.04247673 189.47725027 96.84756739 C188.69989853 104.77003359 187.91809606 112.69205862 187.13616855 120.61407427 C185.74089828 134.75194916 184.35012308 148.89026275 182.96166992 163.02880859 C181.61427645 176.74924138 180.26309973 190.46929506 178.90795898 204.18896484 C177.43337495 219.11794364 175.96095917 234.04713335 174.49225241 248.9766916 C174.33555555 250.56949717 174.17885731 252.16230259 174.02215767 253.75510788 C173.94505757 254.53883522 173.86795747 255.32256257 173.788521 256.13003922 C173.24517755 261.65174818 172.70032566 267.17330711 172.15492058 272.69481277 C171.48981778 279.42868545 170.82720333 286.1627976 170.16773265 292.89722426 C169.83121376 296.33312168 169.49361594 299.76890375 169.15305328 303.20440292 C168.78429444 306.93036964 168.41973852 310.65672432 168.05625916 314.38320923 C167.94799472 315.46716653 167.83973029 316.55112384 167.72818512 317.66792834 C167.23143722 322.8067052 166.87713226 327.83719078 167 333 C172.60109448 333.28971178 176.14750673 333.15976306 181 330 C184.54998923 326.4442983 184.87770204 322.25116709 185.50195312 317.47607422 C185.62423531 316.6010771 185.74651749 315.72607998 185.87250519 314.82456779 C187.51667594 302.71043974 188.72512424 290.54301533 189.96875 278.3828125 C190.24779003 275.68251749 190.52817849 272.98236281 190.80845642 270.28219604 C191.48016781 263.80220808 192.14676629 257.32170469 192.81116515 250.84096324 C193.34841059 245.60070169 193.88721072 240.36060223 194.42703247 235.12060547 C196.16452855 218.25239501 197.89458271 201.38343527 199.61816692 184.51379776 C200.58654276 175.0367793 201.55821072 165.56010498 202.53249145 156.08369184 C203.93343057 142.45682567 205.32449222 128.82898051 206.70605469 115.20013428 C207.19163841 110.41221122 207.68092212 105.6246883 208.17333984 100.83746338 C208.7473545 95.25410931 209.31321401 89.66998991 209.8725605 84.08514786 C210.07700578 82.05724914 210.28430239 80.02963549 210.49470329 78.00234604 C210.77963449 75.25228818 211.0541086 72.50138026 211.32592773 69.75 C211.41041924 68.95836519 211.49491074 68.16673038 211.58196259 67.35110664 C212.13734168 61.55758706 212.16298975 56.3259795 209.5 51 C206.17385198 47.00862237 202.35158785 43.83945308 198 41 C197.34 41 196.68 41 196 41 Z M251.125 139.875 C247.50461009 145.1991028 246.476217 149.37884119 247.40234375 155.69140625 C248.80482432 161.10883121 251.6027038 165.44944066 256.375 168.4375 C262.82604699 171.2181237 267.35632914 171.46574946 273.85546875 169.0078125 C278.52029476 166.81559919 281.2902147 164.25395403 283.875 159.6875 C285.61206194 153.99379698 285.63922732 149.98496904 283.8125 144.3125 C280.75267358 138.72040344 277.01301078 135.19706163 271 133 C263.16763997 131.80622022 256.4653654 133.94126067 251.125 139.875 Z " fill="#2072B8" transform="translate(211,4)"/>
<path d="M0 0 C2.75569447 2.18159145 4.43588747 3.87177494 6 7 C6.57791538 14.0505676 6.57791538 14.0505676 4.25 17.875 C0.58576883 21.33566277 -0.76398136 22.01961934 -5.9375 21.9375 C-10.2343295 21.28014922 -12.26915775 19.39286462 -15 16 C-16.77234774 12.45530451 -16.02306495 8.73193502 -15 5 C-10.85818158 -0.07372756 -6.46696777 -1.52444176 0 0 Z " fill="#2072B8" transform="translate(482,145)"/>
<path d="" fill="#2172B8" transform="translate(0,0)"/>
<path d="" fill="#2172B8" transform="translate(0,0)"/>
</svg>
